<?xml version="1.0" standalone="no"?>
<!DOCTYPE svg PUBLIC "-//W3C//DTD SVG 20010904//EN"
 "http://www.w3.org/TR/2001/REC-SVG-20010904/DTD/svg10.dtd">
<svg version="1.0" xmlns="http://www.w3.org/2000/svg"
 width="587.000000pt" height="516.000000pt" viewBox="0 0 587.000000 516.000000"
 preserveAspectRatio="xMidYMid meet">
<metadata>
Created by potrace 1.15, written by Peter Selinger 2001-2017
</metadata>
<g transform="translate(0.000000,516.000000) scale(0.100000,-0.100000)"
fill="#000000" stroke="none">
<path d="M0 4815 l2 -345 264 0 264 0 0 -61 c0 -57 1 -60 23 -57 21 3 22 6 22
123 0 117 -1 120 -22 123 -21 3 -23 -1 -23 -37 l0 -41 -235 0 -235 0 0 295 0
295 1364 0 1364 0 32 -37 c18 -21 91 -98 162 -172 120 -124 130 -132 143 -115
13 17 6 27 -73 109 -48 50 -114 118 -147 153 l-59 62 307 0 307 0 0 -44 c0
-87 11 -136 31 -136 17 0 19 9 19 90 l0 90 375 0 375 0 0 -412 -1 -413 -113
117 c-107 109 -115 116 -130 99 -14 -16 -12 -21 34 -66 28 -27 50 -54 50 -59
0 -6 -18 -29 -40 -51 -37 -37 -39 -43 -25 -55 14 -11 22 -7 58 28 l43 42 62
-63 62 -63 0 -485 0 -486 -38 -30 -37 -30 -460 478 c-433 450 -461 477 -478
461 -20 -17 -43 9 323 -364 l124 -128 -28 -29 c-17 -18 -26 -36 -23 -45 9 -23
30 -19 58 10 l24 26 231 -238 232 -239 53 50 54 50 512 -3 513 -2 0 -35 c0
-30 3 -34 23 -31 16 2 23 11 25 34 2 18 10 32 19 34 9 2 105 2 214 0 l199 -3
0 -279 0 -280 -80 0 c-72 0 -80 -2 -80 -19 0 -26 14 -29 91 -23 l67 5 7 -32
c5 -24 12 -31 31 -31 l24 0 0 360 0 360 -770 0 -770 0 0 945 0 945 -2160 0
-2161 0 1 -345z"/>
<path d="M390 4890 c0 -20 7 -20 341 -20 l341 0 -6 -22 c-3 -13 -79 -265 -168
-560 l-163 -538 -208 0 -208 0 3 -137 c3 -130 4 -138 23 -138 19 0 20 8 23
113 l3 112 198 0 198 0 181 598 c100 328 182 600 182 605 0 4 -166 7 -370 7
-363 0 -370 0 -370 -20z"/>
<path d="M1716 4826 l-180 -42 -18 -55 c-17 -51 -17 -55 -1 -67 20 -15 27 -9
42 40 14 43 1 37 195 82 l150 35 32 -37 c31 -35 33 -36 50 -20 17 17 16 20
-26 63 -24 25 -49 45 -55 44 -5 0 -91 -20 -189 -43z"/>
<path d="M2541 4856 c-14 -17 -1 -32 386 -434 l148 -154 124 116 c68 64 126
116 130 116 3 0 122 -120 263 -268 331 -344 331 -344 351 -336 9 3 17 9 17 13
0 4 -101 112 -224 240 l-224 233 82 77 c44 43 148 140 229 216 133 124 146
140 133 154 -14 13 -18 12 -43 -10 -32 -28 -317 -293 -386 -358 l-47 -45 -78
77 -78 77 -34 -36 c-19 -20 -75 -72 -124 -117 l-89 -82 -261 269 c-232 239
-263 267 -275 252z"/>
<path d="M2081 4656 c-10 -11 -5 -22 20 -50 l32 -37 -48 -157 c-26 -86 -53
-160 -59 -164 -6 -4 -28 -10 -48 -13 -38 -7 -45 -18 -29 -43 7 -11 18 -11 65
2 32 8 59 16 60 18 1 2 28 86 58 188 l56 185 -41 43 c-46 47 -49 48 -66 28z"/>
<path d="M1456 4522 c-2 -4 -11 -31 -20 -61 l-16 -54 47 -51 c26 -28 87 -93
135 -144 l89 -94 52 12 c66 16 66 16 60 41 -5 18 -11 20 -42 14 -20 -4 -41 -8
-47 -9 -6 0 -62 53 -124 118 -119 127 -115 118 -95 198 5 20 2 26 -14 31 -12
3 -23 2 -25 -1z"/>
<path d="M2575 4245 c-57 -51 -59 -54 -43 -71 17 -17 20 -16 62 25 l44 44 179
-184 c99 -101 263 -272 366 -379 l188 -195 -161 -155 -161 -155 -112 -47 -112
-46 -44 -101 c-38 -88 -47 -101 -72 -106 -20 -5 -29 -13 -29 -26 0 -15 7 -19
38 -19 20 0 42 4 48 8 5 4 29 52 53 107 l42 100 102 40 101 40 181 173 c99 96
181 177 183 182 2 4 -111 127 -250 272 -139 145 -266 279 -282 296 l-30 32 39
40 c37 38 38 41 22 57 -16 16 -19 15 -57 -22 l-40 -39 -93 92 c-51 51 -95 92
-97 92 -3 0 -32 -25 -65 -55z"/>
<path d="M530 4095 l0 -35 -260 0 -260 0 2 -2022 3 -2023 2920 0 2920 0 0 285
c0 278 0 285 -20 285 -19 0 -20 -8 -23 -262 l-2 -263 -2193 1 -2192 1 228 51
c125 28 227 55 227 61 -1 35 -19 33 -325 -37 l-310 -71 -592 -3 -593 -3 0 615
c0 378 4 622 10 633 5 9 25 73 44 142 19 69 56 199 81 289 36 129 43 166 33
172 -7 5 -17 7 -22 6 -6 -2 -38 -103 -72 -225 -34 -122 -64 -227 -67 -234 -3
-7 -6 260 -6 594 l-1 607 56 -16 c48 -14 57 -14 65 -2 5 8 9 17 9 21 0 8 -94
38 -117 38 -11 0 -13 119 -13 655 l0 655 257 2 258 3 3 58 c3 55 2 57 -23 57
-22 0 -25 -4 -25 -35z"/>
<path d="M1099 3867 c-7 -23 -19 -71 -29 -107 -18 -70 -16 -69 -92 -55 -34 7
-38 5 -38 -13 0 -16 10 -24 48 -34 38 -11 46 -18 44 -34 -2 -10 -50 -192 -107
-404 -57 -211 -103 -386 -101 -387 2 -2 34 -12 72 -23 51 -14 71 -16 76 -7 15
24 7 34 -42 46 -27 7 -50 17 -50 21 0 19 123 466 131 474 5 5 32 2 65 -7 32
-9 59 -16 60 -14 1 1 4 11 8 23 6 18 0 22 -46 33 -29 6 -58 15 -65 19 -8 5 7
73 53 242 35 129 64 240 64 246 0 7 -9 14 -20 17 -16 4 -22 -2 -31 -36z"/>
<path d="M2230 3885 c-10 -12 18 -46 174 -207 l186 -192 -44 -40 c-42 -38 -50
-56 -127 -259 l-81 -219 37 -206 c20 -114 39 -217 43 -229 4 -12 52 -67 106
-123 l99 -101 140 -14 c177 -19 169 -19 165 8 -3 21 -11 23 -145 37 l-142 15
-52 50 c-128 125 -124 117 -165 352 l-38 211 79 206 78 207 89 83 c62 60 86
88 82 100 -9 23 -24 20 -60 -15 l-31 -30 -184 190 c-101 105 -187 191 -190
191 -4 0 -12 -7 -19 -15z"/>
<path d="M1536 3803 c-11 -27 -6 -31 44 -44 28 -7 50 -15 50 -18 0 -3 -32
-118 -70 -256 -38 -137 -70 -253 -70 -256 0 -3 37 -17 82 -30 75 -21 93 -31
191 -111 87 -71 112 -86 123 -77 8 6 14 15 14 19 0 5 -51 49 -112 98 -92 73
-124 93 -175 107 -45 12 -63 22 -63 34 1 9 32 126 70 261 37 135 68 246 67
246 -1 1 -34 11 -74 22 -62 17 -72 18 -77 5z"/>
<path d="M651 3433 c-6 -21 -39 -137 -74 -258 -69 -240 -60 -227 -135 -210
-31 7 -34 6 -30 -15 2 -17 13 -26 43 -35 31 -9 39 -15 37 -31 -2 -10 -49 -176
-103 -368 -55 -193 -97 -356 -95 -363 3 -7 12 -13 20 -13 17 0 17 -1 127 388
72 257 75 263 98 257 78 -20 83 -19 79 6 -2 18 -12 25 -43 32 -22 6 -42 11
-43 13 -2 1 35 138 82 303 47 165 86 307 86 316 0 8 -9 15 -20 15 -14 0 -22
-10 -29 -37z"/>
<path d="M3522 3277 c-41 -41 -50 -55 -40 -65 18 -18 29 -15 65 20 l33 32 175
-174 c96 -96 175 -180 175 -187 0 -6 -20 -29 -45 -51 -42 -37 -44 -40 -27 -55
17 -16 21 -14 62 28 l44 45 183 -182 c160 -160 184 -180 198 -168 14 12 10 19
-37 69 -30 31 -64 68 -78 84 l-24 27 37 38 c29 30 34 41 25 50 -18 18 -29 15
-66 -20 l-34 -33 -293 298 c-161 163 -294 297 -297 297 -2 0 -27 -24 -56 -53z"/>
<path d="M4983 2952 l-83 -77 126 -129 125 -129 82 81 c46 45 85 82 87 82 3 0
4 -26 4 -57 -2 -86 8 -137 29 -141 16 -3 17 10 17 153 l0 157 -111 -103 -111
-103 -90 93 -91 93 64 64 c56 56 62 66 49 78 -13 13 -25 5 -97 -62z"/>
<path d="M3175 2878 c-15 -51 -31 -97 -35 -101 -4 -5 -50 -21 -101 -36 -79
-23 -95 -30 -97 -49 -4 -29 2 -28 131 9 l107 32 35 110 c35 111 35 126 -1 127
-6 0 -23 -42 -39 -92z"/>
<path d="M4378 2954 c-15 -18 -7 -29 190 -234 113 -118 331 -344 484 -502
l279 -287 2 -133 c2 -130 3 -133 25 -136 l22 -3 0 270 0 271 50 0 c47 0 50 2
50 25 0 23 -3 25 -50 25 -53 0 -55 2 -52 68 1 17 -4 22 -23 22 l-25 0 -2 -170
-3 -171 -311 323 c-170 178 -343 358 -384 401 l-73 78 48 49 c42 42 46 51 35
65 -12 14 -18 11 -59 -29 -26 -26 -51 -46 -56 -46 -6 0 -37 30 -70 66 -58 64
-61 65 -77 48z"/>
<path d="M2026 2791 c-4 -5 21 -68 54 -140 l61 -131 -33 -122 -33 -121 -81
-72 c-45 -39 -120 -103 -167 -143 l-85 -72 -218 -39 -219 -38 -114 33 c-63 19
-117 34 -121 34 -4 0 -10 -9 -13 -20 -4 -16 2 -22 35 -32 22 -6 42 -17 44 -22
2 -6 -27 -121 -64 -256 -64 -229 -67 -246 -50 -254 10 -5 20 -7 23 -5 2 3 27
88 55 189 28 102 60 215 71 252 l19 66 56 -15 c54 -16 60 -15 286 23 l230 39
156 133 c87 74 165 142 176 152 10 10 35 76 57 155 l38 138 -62 136 c-59 127
-84 160 -101 132z"/>
<path d="M1515 2785 c-5 -2 -54 -14 -107 -26 -54 -12 -98 -27 -98 -33 1 -33
15 -35 116 -12 l100 22 79 -73 c60 -55 82 -70 92 -61 7 6 13 16 13 22 0 13
-164 166 -177 165 -4 0 -12 -2 -18 -4z"/>
<path d="M662 2268 c-56 -200 -107 -380 -112 -400 l-11 -37 -51 15 c-42 13
-52 13 -59 2 -14 -22 -5 -31 48 -46 l51 -14 -29 -106 c-48 -174 -52 -154 38
-179 58 -16 80 -18 85 -10 16 25 6 34 -51 50 l-58 16 19 73 c11 40 67 242 125
448 58 206 112 401 121 433 8 31 20 57 26 57 6 0 103 -26 216 -58 l205 -58 98
-73 98 -74 107 16 107 15 20 -24 c18 -21 23 -23 40 -11 17 14 17 16 -10 51
-24 31 -32 36 -59 31 -98 -16 -189 -24 -199 -18 -7 4 -48 34 -91 67 l-80 60
-245 68 c-135 37 -246 68 -246 68 -1 0 -47 -163 -103 -362z"/>
<path d="M3515 2501 c-41 -42 -76 -67 -111 -80 -175 -66 -214 -84 -214 -97 0
-28 27 -24 160 27 114 43 142 58 183 97 l48 47 46 -50 c95 -102 325 -335 332
-335 4 0 29 23 56 50 47 47 48 51 32 67 -16 17 -19 15 -54 -20 l-38 -37 -190
196 -190 196 -60 -61z"/>
<path d="M5810 2105 l0 -265 -80 0 c-79 0 -80 0 -80 -25 0 -25 1 -25 80 -25
l80 0 0 -65 c0 -63 1 -65 25 -65 l25 0 0 355 0 355 -25 0 -25 0 0 -265z"/>
<path d="M2361 2075 c-74 -18 -138 -39 -142 -46 -4 -8 -44 -63 -88 -124 -71
-95 -79 -111 -66 -124 19 -19 25 -13 115 113 83 117 70 109 240 147 l95 21
200 -73 200 -74 141 -174 141 -173 27 -119 c24 -103 30 -119 47 -119 18 0 20
6 17 52 l-3 51 250 61 c192 47 251 65 253 78 2 9 -1 19 -7 22 -5 3 -119 -21
-253 -54 -133 -33 -248 -60 -254 -60 -6 0 -16 24 -23 54 -11 48 -30 77 -160
238 l-149 183 -213 78 c-118 42 -218 77 -224 76 -5 0 -70 -15 -144 -34z"/>
<path d="M4423 2007 l-173 -41 -16 -48 c-9 -27 -13 -56 -10 -65 9 -22 -22
-124 -44 -145 -10 -9 -23 -39 -30 -67 -14 -59 -25 -43 154 -233 l101 -108 54
15 c30 8 57 19 61 26 10 16 131 42 142 31 6 -6 32 -4 69 5 52 14 60 19 67 47
5 17 31 102 57 189 l48 158 -43 44 c-24 24 -49 41 -56 38 -18 -7 -106 89 -93
102 13 13 -70 95 -96 94 -11 0 -98 -19 -192 -42z"/>
<path d="M2624 1687 c-20 -43 -12 -39 -195 -92 l-57 -16 -27 -109 c-15 -59
-24 -117 -21 -127 4 -10 38 -52 76 -93 l68 -74 123 27 c67 15 123 26 124 25 2
-2 28 -110 60 -241 l57 -238 32 7 c17 3 197 46 400 95 203 49 371 87 373 85 3
-2 10 -26 17 -53 10 -39 16 -47 32 -45 26 5 26 4 13 56 -7 27 -8 51 -3 55 5 5
45 18 89 29 44 11 99 26 121 31 l42 11 -20 80 c-17 67 -24 80 -41 80 -17 0
-19 -4 -13 -42 4 -24 9 -52 12 -64 5 -19 -2 -23 -58 -38 -146 -38 -933 -226
-948 -226 -12 0 -27 48 -67 213 l-51 212 14 95 c21 147 21 145 -50 240 -49 65
-62 89 -55 102 14 26 11 45 -9 50 -14 4 -24 -5 -38 -35z"/>
<path d="M1927 1543 c-3 -5 -15 -70 -28 -146 -21 -129 -21 -142 -7 -207 l14
-68 -65 -16 c-341 -82 -446 -108 -452 -111 -4 -3 1 -35 10 -72 14 -57 21 -69
40 -71 21 -3 22 -1 15 35 -16 80 -34 70 243 137 138 34 254 64 258 67 3 3 -3
42 -14 86 l-19 80 24 139 c18 106 20 140 11 146 -15 10 -25 10 -30 1z"/>
<path d="M5817 1474 c-4 -4 -7 -139 -7 -301 l0 -293 -75 0 c-73 0 -75 -1 -75
-25 0 -24 2 -25 75 -25 l75 0 0 -30 c0 -25 4 -30 25 -30 l25 0 -2 352 c-3 309
-5 353 -18 356 -9 1 -19 0 -23 -4z"/>
<path d="M5340 1246 l0 -184 -37 -7 c-21 -4 -173 -40 -339 -80 -165 -41 -368
-90 -450 -110 -328 -79 -730 -177 -746 -181 -21 -6 -24 -32 -4 -40 7 -3 235
49 507 115 272 65 503 121 513 123 17 3 22 -9 39 -74 15 -62 23 -78 38 -78 28
0 29 10 7 89 -11 40 -18 75 -15 77 3 3 112 31 243 63 l239 59 3 -99 c3 -99 3
-99 28 -99 l26 0 -4 270 -3 270 52 0 c46 0 53 3 53 20 0 18 -7 20 -55 20 -42
0 -55 3 -55 15 0 8 -9 15 -20 15 -19 0 -20 -7 -20 -184z"/>
<path d="M646 1059 c-88 -21 -165 -40 -171 -43 -6 -2 -17 -23 -24 -46 -7 -23
-15 -48 -18 -56 -3 -8 4 -17 18 -23 22 -8 25 -5 40 37 l15 46 165 39 164 38
30 -35 c34 -41 40 -43 54 -17 15 27 -50 101 -87 100 -15 -1 -99 -19 -186 -40z"/>
<path d="M1016 895 c-18 -13 -17 -16 13 -54 l32 -40 -48 -160 -48 -160 -35 -6
c-50 -8 -62 -18 -53 -41 8 -19 11 -19 68 -6 l60 13 44 147 c24 81 50 165 56
187 12 40 12 41 -29 87 -37 43 -43 46 -60 33z"/>
<path d="M2567 842 c-14 -3 -17 -10 -12 -29 20 -81 20 -81 -21 -92 -407 -107
-463 -116 -464 -76 0 6 -5 27 -11 48 -7 28 -15 37 -31 37 -22 0 -22 7 -2 -103
l6 -32 -242 -60 c-144 -36 -245 -65 -248 -73 -12 -31 16 -33 118 -7 114 29
114 29 125 -38 6 -32 11 -38 28 -35 23 3 24 8 11 78 l-6 35 399 99 c219 54
401 101 405 105 7 6 -20 132 -31 142 -3 3 -14 4 -24 1z"/>
<path d="M387 753 c-3 -4 -12 -32 -21 -62 l-16 -54 137 -144 c91 -96 141 -142
152 -139 9 3 36 10 59 16 33 8 42 15 38 26 -3 9 -6 19 -6 23 0 5 -21 3 -46 -2
l-47 -11 -113 119 c-105 111 -114 122 -108 150 12 55 10 79 -8 83 -9 2 -18 -1
-21 -5z"/>
<path d="M3167 535 c-186 -45 -339 -79 -341 -76 -2 3 -7 21 -11 39 -4 21 -12
32 -24 32 -27 0 -30 -8 -19 -47 5 -19 7 -37 5 -39 -4 -5 -476 -122 -557 -139
-19 -4 -45 -11 -57 -16 l-21 -8 18 -71 c21 -82 21 -83 44 -74 14 6 16 14 10
43 -4 20 -7 44 -8 55 -1 16 72 36 624 172 344 84 630 153 636 154 9 0 39 -97
58 -186 0 -4 -18 -14 -41 -21 -40 -14 -55 -34 -34 -48 12 -7 131 25 131 36 0
9 -70 272 -73 275 -1 1 -154 -35 -340 -81z"/>
<path d="M5347 573 c-2 -5 -3 -29 -2 -55 l3 -48 -417 0 -418 0 -182 -45 c-100
-25 -186 -45 -191 -45 -5 0 -12 16 -16 35 -6 35 -18 42 -41 27 -10 -6 -9 -20
2 -61 7 -29 15 -55 17 -56 2 -2 100 21 218 50 l215 54 408 1 407 0 0 -55 c0
-48 2 -55 20 -55 19 0 20 7 20 130 0 122 -1 130 -19 130 -11 0 -22 -3 -24 -7z"/>
</g>
</svg>
